<?xml version="1.0" encoding="UTF-8"?>
<svg version="1.1" xmlns="http://www.w3.org/2000/svg" width="191" height="98">
<path d="M0 0 C1.08152344 0.52142578 2.16304688 1.04285156 3.27734375 1.58007812 C4.94990234 2.3931543 4.94990234 2.3931543 6.65625 3.22265625 C7.77128906 3.76083984 8.88632813 4.29902344 10.03515625 4.85351562 C18.97635803 9.17491887 18.97635803 9.17491887 21.84228516 10.93115234 C26.57019915 12.86286083 30.96049628 12.76475237 36.0234375 12.796875 C36.94133057 12.81351196 37.85922363 12.83014893 38.80493164 12.84729004 C42.21347452 12.90485441 45.6224046 12.93728338 49.03125 12.97265625 C60.478125 13.12734375 60.478125 13.12734375 72.15625 13.28515625 C72.15625 29.45515625 72.15625 45.62515625 72.15625 62.28515625 C49.71875 62.28515625 49.71875 62.28515625 42.75219727 62.22265625 C29.33183659 62.2732583 19.69978014 64.49368811 8.15625 71.28515625 C6.52206703 72.14793377 4.88484575 73.00503258 3.2421875 73.8515625 C1.36038386 74.8573541 -0.51227665 75.87219027 -2.37109375 76.91992188 C-7.01571452 79.36724276 -9.80142876 79.66764178 -14.84375 78.28515625 C-18.32306185 76.88283276 -21.67266826 75.26598728 -25.03125 73.59765625 C-26.33545898 72.9644043 -26.33545898 72.9644043 -27.66601562 72.31835938 C-28.54322266 71.89103516 -29.42042969 71.46371094 -30.32421875 71.0234375 C-31.23631104 70.58684814 -32.14840332 70.15025879 -33.08813477 69.70043945 C-35.84375 68.28515625 -35.84375 68.28515625 -38.37866211 66.62573242 C-48.53997175 60.38516756 -59.53872245 61.65790367 -71.03125 61.97265625 C-74.15010476 62.03006143 -77.26896647 62.07895853 -80.38801575 62.12446594 C-82.31793801 62.15562721 -84.24774399 62.19540037 -86.17729187 62.24455261 C-87.03941788 62.26399429 -87.90154388 62.28343597 -88.78979492 62.3034668 C-89.93130257 62.33394356 -89.93130257 62.33394356 -91.09587097 62.36503601 C-92.84375 62.28515625 -92.84375 62.28515625 -93.84375 61.28515625 C-93.93686889 59.78096886 -93.96121028 58.27244269 -93.95727539 56.76538086 C-93.95719986 55.8044603 -93.95712433 54.84353973 -93.95704651 53.85350037 C-93.95188522 52.80872025 -93.94672394 51.76394012 -93.94140625 50.6875 C-93.9399913 49.62350479 -93.93857635 48.55950958 -93.93711853 47.46327209 C-93.93150064 44.04970542 -93.91894511 40.63620325 -93.90625 37.22265625 C-93.90123731 34.91471449 -93.896674 32.6067717 -93.89257812 30.29882812 C-93.8815254 24.62758199 -93.86476987 18.95637372 -93.84375 13.28515625 C-92.54042725 13.31246826 -91.23710449 13.33978027 -89.89428711 13.36791992 C-56.36054922 14.70394239 -56.36054922 14.70394239 -25.88574219 2.64160156 C-22.95118072 0.69224437 -19.91236643 -0.91297916 -16.78125 -2.52734375 C-15.94464844 -3.00816406 -15.10804687 -3.48898438 -14.24609375 -3.984375 C-9.39942645 -5.45807709 -4.35365092 -2.10687144 0 0 Z " fill="#F5E809" transform="translate(105.84375,9.71484375)"/>
<path d="M0 0 C1.08152344 0.52142578 2.16304688 1.04285156 3.27734375 1.58007812 C4.94990234 2.3931543 4.94990234 2.3931543 6.65625 3.22265625 C7.77128906 3.76083984 8.88632813 4.29902344 10.03515625 4.85351562 C18.97635803 9.17491887 18.97635803 9.17491887 21.84228516 10.93115234 C26.57019915 12.86286083 30.96049628 12.76475237 36.0234375 12.796875 C36.94133057 12.81351196 37.85922363 12.83014893 38.80493164 12.84729004 C42.21347452 12.90485441 45.6224046 12.93728338 49.03125 12.97265625 C60.478125 13.12734375 60.478125 13.12734375 72.15625 13.28515625 C72.15625 29.45515625 72.15625 45.62515625 72.15625 62.28515625 C49.71875 62.28515625 49.71875 62.28515625 42.75219727 62.22265625 C29.33183659 62.2732583 19.69978014 64.49368811 8.15625 71.28515625 C6.52206703 72.14793377 4.88484575 73.00503258 3.2421875 73.8515625 C1.36038386 74.8573541 -0.51227665 75.87219027 -2.37109375 76.91992188 C-7.01571452 79.36724276 -9.80142876 79.66764178 -14.84375 78.28515625 C-18.32306185 76.88283276 -21.67266826 75.26598728 -25.03125 73.59765625 C-26.33545898 72.9644043 -26.33545898 72.9644043 -27.66601562 72.31835938 C-28.54322266 71.89103516 -29.42042969 71.46371094 -30.32421875 71.0234375 C-31.23631104 70.58684814 -32.14840332 70.15025879 -33.08813477 69.70043945 C-35.84375 68.28515625 -35.84375 68.28515625 -38.37866211 66.62573242 C-48.53997175 60.38516756 -59.53872245 61.65790367 -71.03125 61.97265625 C-74.15010476 62.03006143 -77.26896647 62.07895853 -80.38801575 62.12446594 C-82.31793801 62.15562721 -84.24774399 62.19540037 -86.17729187 62.24455261 C-87.03941788 62.26399429 -87.90154388 62.28343597 -88.78979492 62.3034668 C-89.93130257 62.33394356 -89.93130257 62.33394356 -91.09587097 62.36503601 C-92.84375 62.28515625 -92.84375 62.28515625 -93.84375 61.28515625 C-93.93686889 59.78096886 -93.96121028 58.27244269 -93.95727539 56.76538086 C-93.95719986 55.8044603 -93.95712433 54.84353973 -93.95704651 53.85350037 C-93.95188522 52.80872025 -93.94672394 51.76394012 -93.94140625 50.6875 C-93.9399913 49.62350479 -93.93857635 48.55950958 -93.93711853 47.46327209 C-93.93150064 44.04970542 -93.91894511 40.63620325 -93.90625 37.22265625 C-93.90123731 34.91471449 -93.896674 32.6067717 -93.89257812 30.29882812 C-93.8815254 24.62758199 -93.86476987 18.95637372 -93.84375 13.28515625 C-92.54042725 13.31246826 -91.23710449 13.33978027 -89.89428711 13.36791992 C-56.36054922 14.70394239 -56.36054922 14.70394239 -25.88574219 2.64160156 C-22.95118072 0.69224437 -19.91236643 -0.91297916 -16.78125 -2.52734375 C-15.94464844 -3.00816406 -15.10804687 -3.48898438 -14.24609375 -3.984375 C-9.39942645 -5.45807709 -4.35365092 -2.10687144 0 0 Z M-26.83203125 8.92578125 C-45.18933062 20.47008456 -68.00326549 17.58913586 -88.84375 17.28515625 C-88.84375 30.48515625 -88.84375 43.68515625 -88.84375 57.28515625 C-85.79253906 57.26453125 -82.74132812 57.24390625 -79.59765625 57.22265625 C-76.58212525 57.22991103 -73.56696806 57.25081312 -70.55151367 57.27294922 C-68.48511373 57.28096909 -66.41860561 57.27520796 -64.35229492 57.25439453 C-49.87848024 57.12093058 -39.35917804 58.92678924 -26.84375 66.28515625 C-25.25585165 67.14181851 -23.66746275 67.99757366 -22.078125 68.8515625 C-20.30300066 69.8574663 -18.54021298 70.87939688 -16.78515625 71.91992188 C-14.23224198 73.35417503 -12.35193593 74.29729445 -9.390625 74.2265625 C-5.91461126 72.94171693 -2.63238095 71.35565664 0.65625 69.66015625 C1.28789063 69.34175781 1.91953125 69.02335937 2.5703125 68.6953125 C3.22773437 68.36144531 3.88515625 68.02757813 4.5625 67.68359375 C5.64785034 67.14375854 5.64785034 67.14375854 6.75512695 66.59301758 C9.24546462 65.2912035 9.24546462 65.2912035 11.76635742 63.4831543 C22.4347057 56.59850651 33.14389674 57.27692955 45.46875 57.34765625 C47.57749588 57.33452421 49.68622476 57.31827291 51.79492188 57.29882812 C56.91681137 57.25253993 62.03272921 57.2702313 67.15625 57.28515625 C67.15625 44.41515625 67.15625 31.54515625 67.15625 18.28515625 C51.64625 17.95515625 36.13625 17.62515625 20.15625 17.28515625 C20.15625 16.62515625 20.15625 15.96515625 20.15625 15.28515625 C19.16367188 14.86105469 18.17109375 14.43695313 17.1484375 14 C8.92478295 10.4578316 0.88276372 6.72423996 -7.05078125 2.5703125 C-14.02905131 -0.64066771 -21.04952413 5.01326821 -26.83203125 8.92578125 Z " fill="#447E52" transform="translate(105.84375,9.71484375)"/>
<path d="M0 0 C1.08152344 0.52142578 2.16304688 1.04285156 3.27734375 1.58007812 C4.94990234 2.3931543 4.94990234 2.3931543 6.65625 3.22265625 C7.77128906 3.76083984 8.88632813 4.29902344 10.03515625 4.85351562 C15.09252949 7.29781223 20.13566746 9.76602593 25.15625 12.28515625 C24.49625 12.94515625 23.83625 13.60515625 23.15625 14.28515625 C32.18521743 15.35319514 41.20228582 15.60858206 50.28125 15.84765625 C51.82553003 15.89094927 53.369801 15.93456658 54.9140625 15.97851562 C58.66136139 16.08446566 62.40876353 16.18603495 66.15625 16.28515625 C66.48625 16.94515625 66.81625 17.60515625 67.15625 18.28515625 C60.94490856 18.30985117 54.73359562 18.32801383 48.5222168 18.34008789 C46.40860496 18.34512069 44.29499662 18.35194745 42.18139648 18.3605957 C39.14566182 18.37270729 36.10997314 18.37839506 33.07421875 18.3828125 C31.6537751 18.39055443 31.6537751 18.39055443 30.20463562 18.39845276 C28.88360588 18.39856606 28.88360588 18.39856606 27.53588867 18.39868164 C26.76089523 18.40090225 25.98590179 18.40312286 25.18742371 18.40541077 C23.15625 18.28515625 23.15625 18.28515625 20.15625 17.28515625 C20.15625 16.62515625 20.15625 15.96515625 20.15625 15.28515625 C19.42269287 15.16060059 18.68913574 15.03604492 17.93334961 14.90771484 C15.27374384 14.31149553 13.16925588 13.50373788 10.72265625 12.32421875 C9.90861328 11.93492188 9.09457031 11.545625 8.25585938 11.14453125 C7.41861328 10.7371875 6.58136719 10.32984375 5.71875 9.91015625 C4.88537109 9.51054687 4.05199219 9.1109375 3.19335938 8.69921875 C2.37802734 8.30734375 1.56269531 7.91546875 0.72265625 7.51171875 C-0.06608887 7.13305664 -0.85483398 6.75439453 -1.66748047 6.36425781 C-3.51844827 5.44645686 -5.32907135 4.44800724 -7.12890625 3.43359375 C-10.40731372 2.04675663 -11.51341496 2.10649852 -14.84375 3.28515625 C-17.38682844 4.46386185 -19.86256841 5.67655264 -22.34375 6.97265625 C-24.36847666 8.02014239 -26.39503124 9.05536457 -28.44262695 10.05761719 C-30.91412888 11.2828808 -30.91412888 11.2828808 -33.45385742 12.87988281 C-44.24481272 18.89174523 -55.13142586 17.96075322 -67.15625 17.66015625 C-69.26493564 17.63000206 -71.37366309 17.60263595 -73.48242188 17.578125 C-78.60476141 17.51774379 -83.72119379 17.40026987 -88.84375 17.28515625 C-88.84375 30.48515625 -88.84375 43.68515625 -88.84375 57.28515625 C-85.73453125 57.21554688 -82.6253125 57.1459375 -79.421875 57.07421875 C-76.37357242 57.02727867 -73.32531179 56.99093133 -70.27685547 56.95556641 C-68.1760829 56.9255968 -66.07543327 56.88480595 -63.97509766 56.83251953 C-41.57639189 56.28932695 -41.57639189 56.28932695 -31.84375 63.28515625 C-31.84375 63.61515625 -31.84375 63.94515625 -31.84375 64.28515625 C-33.49375 64.28515625 -35.14375 64.28515625 -36.84375 64.28515625 C-36.84375 63.62515625 -36.84375 62.96515625 -36.84375 62.28515625 C-39.31875 62.78015625 -39.31875 62.78015625 -41.84375 63.28515625 C-41.84375 62.29515625 -41.84375 61.30515625 -41.84375 60.28515625 C-42.56995041 60.4497081 -43.29615082 60.61425995 -44.0443573 60.78379822 C-46.67813732 61.2554958 -48.96712554 61.37300644 -51.6340332 61.30688477 C-52.56735474 61.28646118 -53.50067627 61.2660376 -54.46228027 61.24499512 C-55.4299231 61.21828735 -56.39756592 61.19157959 -57.39453125 61.1640625 C-58.29377319 61.14339722 -59.19301514 61.12273193 -60.11950684 61.10144043 C-63.46523607 61.02292469 -66.81073223 60.93471774 -70.15625 60.84765625 C-77.643125 60.66203125 -85.13 60.47640625 -92.84375 60.28515625 C-92.84375 44.77515625 -92.84375 29.26515625 -92.84375 13.28515625 C-85.728125 13.34703125 -78.6125 13.40890625 -71.28125 13.47265625 C-54.02787711 13.32645658 -40.64363758 12.36566378 -25.90185547 2.64160156 C-22.95807404 0.70142961 -19.91393755 -0.91023013 -16.78125 -2.52734375 C-15.94464844 -3.00816406 -15.10804687 -3.48898438 -14.24609375 -3.984375 C-9.39942645 -5.45807709 -4.35365092 -2.10687144 0 0 Z " fill="#2C6A23" transform="translate(105.84375,9.71484375)"/>
<path d="M0 0 C0.99 0.495 0.99 0.495 2 1 C2 1.66 2 2.32 2 3 C0.72942818 3.47985967 -0.54146848 3.9588593 -1.8125 4.4375 C-2.87404297 4.83775391 -2.87404297 4.83775391 -3.95703125 5.24609375 C-5.62672396 5.86225186 -7.31157704 6.43719235 -9 7 C-9 7.66 -9 8.32 -9 9 C-11.64 9.33 -14.28 9.66 -17 10 C-17.33 10.99 -17.66 11.98 -18 13 C-24.15007504 15.26581712 -27.81400893 14.98835427 -34 13 C-34 16.96 -34 20.92 -34 25 C-34.99 24.67 -35.98 24.34 -37 24 C-40.54178598 23.74996036 -40.54178598 23.74996036 -44 24 C-46.30746414 25.87773264 -46.30746414 25.87773264 -46.25 28.9375 C-46.23517754 32.17282787 -46.23517754 32.17282787 -44 35 C-40.28359861 35.27028374 -37.542799 35.180933 -34 34 C-34 36.64 -34 39.28 -34 42 C-38.64398011 43.54799337 -43.32517708 43.49594333 -48 42 C-48 41.34 -48 40.68 -48 40 C-49.32 39.34 -50.64 38.68 -52 38 C-52 37.34 -52 36.68 -52 36 C-52.99 36 -53.98 36 -55 36 C-55.23576736 28.37685526 -54.83717315 21.41430591 -53 14 C-54.65 14.33 -56.3 14.66 -58 15 C-58 16.32 -58 17.64 -58 19 C-58.66 19.33 -59.32 19.66 -60 20 C-60.33 29.24 -60.66 38.48 -61 48 C-57.88175781 47.97679687 -54.76351562 47.95359375 -51.55078125 47.9296875 C-48.52580166 47.91408342 -45.50082659 47.90194297 -42.47583008 47.89013672 C-40.37587472 47.88008831 -38.27593331 47.86644734 -36.17602539 47.84912109 C-33.1550756 47.82482199 -30.13431105 47.81350518 -27.11328125 47.8046875 C-25.70832146 47.78920364 -25.70832146 47.78920364 -24.27497864 47.77340698 C-19.74277719 47.77262945 -16.10916422 47.82699275 -12 50 C-12 50.66 -12 51.32 -12 52 C-11.13375 52.268125 -10.2675 52.53625 -9.375 52.8125 C-6.07647057 53.97309369 -3.12336871 55.43831565 0 57 C1.03125 57.33 2.0625 57.66 3.125 58 C5.98439962 58.99457378 7.60829674 60.20622256 10 62 C12.71511048 63.68304356 12.71511048 63.68304356 16 64 C18.09115986 62.97695412 19.88066452 61.71959979 21.77734375 60.37109375 C24.93884157 58.4208552 28.21376274 57.64062879 31.80078125 56.7734375 C34.25237763 55.91124197 35.25080071 54.87238234 37 53 C40.60877744 51.5878697 44.18805137 50.67269682 48 50 C45.59550892 52.73033798 43.13525714 54.06655763 39.8515625 55.59375 C38.84609375 56.06683594 37.840625 56.53992188 36.8046875 57.02734375 C35.75539063 57.51332031 34.70609375 57.99929687 33.625 58.5 C31.55362296 59.46647171 29.48327359 60.43514966 27.4140625 61.40625 C26.03661865 62.04530273 26.03661865 62.04530273 24.63134766 62.69726562 C21.94307191 63.97642561 21.94307191 63.97642561 19.30834961 65.66748047 C17 67 17 67 14.65234375 66.9140625 C11.12875656 65.69974821 7.86254127 64.08804787 4.5625 62.375 C2.54079014 61.34219269 0.5189365 60.31325148 -1.51660156 59.30786133 C-4 58 -4 58 -6.83496094 56.19799805 C-17.93758285 49.64169396 -28.74625366 49.9897262 -41.375 50.0625 C-43.47918862 50.04936504 -45.58336019 50.0331123 -47.6875 50.01367188 C-52.79311729 49.96743991 -57.89275113 49.98506652 -63 50 C-63 36.8 -63 23.6 -63 10 C-59.94878906 10.020625 -56.89757812 10.04125 -53.75390625 10.0625 C-50.73837525 10.05524522 -47.72321806 10.03434313 -44.70776367 10.01220703 C-42.64136373 10.00418716 -40.57485561 10.00994829 -38.50854492 10.03076172 C-24.16055991 10.16306539 -13.38014751 8.50961804 -1 1 C-0.67 0.67 -0.34 0.34 0 0 Z " fill="#EAEB23" transform="translate(80,17)"/>
<path d="M0 0 C0.99 0 1.98 0 3 0 C3 0.66 3 1.32 3 2 C26.265 2.495 26.265 2.495 50 3 C50 15.87 50 28.74 50 42 C35.15 42 20.3 42 5 42 C5 41.67 5 41.34 5 41 C19.19 41 33.38 41 48 41 C48.33 29.12 48.66 17.24 49 5 C45.7 5.66 42.4 6.32 39 7 C39.66 7.33 40.32 7.66 41 8 C41.4140625 10.06640625 41.4140625 10.06640625 41.625 12.5625 C41.69976562 13.38878906 41.77453125 14.21507812 41.8515625 15.06640625 C41.90054688 15.70449219 41.94953125 16.34257813 42 17 C40.35 17.66 38.7 18.32 37 19 C36.67 18.67 36.34 18.34 36 18 C33.5 17.83333333 33.5 17.83333333 31 18 C29.65595225 19.11836224 29.65595225 19.11836224 29.875 22 C29.65595225 24.88163776 29.65595225 24.88163776 31 26 C32.51928038 26.07179964 34.04167482 26.08392007 35.5625 26.0625 C36.38878906 26.05347656 37.21507812 26.04445313 38.06640625 26.03515625 C38.70449219 26.02355469 39.34257812 26.01195313 40 26 C40.02688151 27.64574566 40.04634123 29.29161413 40.0625 30.9375 C40.07410156 31.85402344 40.08570313 32.77054688 40.09765625 33.71484375 C40 36 40 36 39 37 C31.06163749 37.64198266 25.21167655 37.41091903 18.86328125 32.26953125 C16.44813153 29.327808 16.55249548 27.69435003 16.6875 23.9375 C16.71199219 22.89464844 16.73648438 21.85179687 16.76171875 20.77734375 C17 18 17 18 18 15 C18.66 15 19.32 15 20 15 C20.33 13.02 20.66 11.04 21 9 C21.9590625 8.7834375 21.9590625 8.7834375 22.9375 8.5625 C24.97545146 8.18992819 24.97545146 8.18992819 26 7 C24.865625 6.96261719 23.73125 6.92523437 22.5625 6.88671875 C7.01102941 6.25597426 7.01102941 6.25597426 1 3 C0.67 2.01 0.34 1.02 0 0 Z " fill="#D8E632" transform="translate(123,25)"/>
<path d="M0 0 C15.24149572 -0.58062841 15.24149572 -0.58062841 21 4 C24.10742827 8.6611424 23.73714735 13.54510964 23 19 C20.56410708 22.2917472 18.37847595 23.7476827 15 26 C12.3886146 26.14269866 9.91622711 26.18772704 7.3125 26.125 C4.899375 26.08375 2.48625 26.0425 0 26 C0 17.42 0 8.84 0 0 Z " fill="#225B01" transform="translate(85,34)"/>
<path d="M0 0 C15.18 0 30.36 0 46 0 C42.91312847 3.08687153 39.20334393 2.35884107 35.0546875 2.4140625 C33.87821655 2.44052856 33.87821655 2.44052856 32.67797852 2.4675293 C29.74386216 2.53066815 26.80939987 2.57680522 23.875 2.625 C17.31625 2.74875 10.7575 2.8725 4 3 C4 16.2 4 29.4 4 43 C7.10921875 42.93039063 10.2184375 42.86078125 13.421875 42.7890625 C16.47017758 42.74212242 19.51843821 42.70577508 22.56689453 42.67041016 C24.6676671 42.64044055 26.76831673 42.5996497 28.86865234 42.54736328 C51.26735811 42.0041707 51.26735811 42.0041707 61 49 C61 49.33 61 49.66 61 50 C59.35 50 57.7 50 56 50 C56 49.34 56 48.68 56 48 C53.525 48.495 53.525 48.495 51 49 C51 48.01 51 47.02 51 46 C50.27379959 46.16455185 49.54759918 46.3291037 48.7993927 46.49864197 C46.16561268 46.97033955 43.87662446 47.08785019 41.2097168 47.02172852 C40.27639526 47.00130493 39.34307373 46.98088135 38.38146973 46.95983887 C37.4138269 46.9331311 36.44618408 46.90642334 35.44921875 46.87890625 C34.54997681 46.85824097 33.65073486 46.83757568 32.72424316 46.81628418 C29.37851393 46.73776844 26.03301777 46.64956149 22.6875 46.5625 C15.200625 46.376875 7.71375 46.19125 0 46 C0 30.82 0 15.64 0 0 Z " fill="#125B22" transform="translate(13,24)"/>
<path d="M0 0 C0.33 0 0.66 0 1 0 C1 15.51 1 31.02 1 47 C17.83 47 34.66 47 52 47 C52.33 47.66 52.66 48.32 53 49 C54.32 49 55.64 49 57 49 C57 49.66 57 50.32 57 51 C57.98742187 50.91878906 58.97484375 50.83757812 59.9921875 50.75390625 C64.69695187 50.75509014 68.08611962 52.70428164 72.125 54.9375 C78.23298228 58.48276543 78.23298228 58.48276543 85 60 C87.33747535 59.05346066 87.33747535 59.05346066 89.5 57.5625 C92.88445125 55.37571548 94.9539058 54.70794038 99 55 C99.33 55.99 99.66 56.98 100 58 C98.88625 58.2475 97.7725 58.495 96.625 58.75 C92.95175786 59.56767049 92.95175786 59.56767049 91.875 62 C91.58625 62.66 91.2975 63.32 91 64 C87.59618867 66.0422868 84.96875501 66.15705177 81.09399414 65.53735352 C76.75078948 64.4228154 72.81183125 62.29911487 68.8125 60.3125 C67.94302734 59.89033203 67.07355469 59.46816406 66.17773438 59.03320312 C65.30052734 58.60587891 64.42332031 58.17855469 63.51953125 57.73828125 C62.60743896 57.30169189 61.69534668 56.86510254 60.75561523 56.4152832 C58 55 58 55 55.46508789 53.34057617 C45.30377825 47.10001131 34.30502755 48.37274742 22.8125 48.6875 C19.69364524 48.74490518 16.57478353 48.79380228 13.45573425 48.83930969 C11.52581199 48.87047096 9.59600601 48.91024412 7.66645813 48.95939636 C6.80433212 48.97883804 5.94220612 48.99827972 5.05395508 49.01831055 C4.29294998 49.03862839 3.53194489 49.05894623 2.74787903 49.07987976 C1 49 1 49 0 48 C-0.09311889 46.49581261 -0.11746028 44.98728644 -0.11352539 43.48022461 C-0.11344986 42.51930405 -0.11337433 41.55838348 -0.11329651 40.56834412 C-0.10813522 39.523564 -0.10297394 38.47878387 -0.09765625 37.40234375 C-0.0962413 36.33834854 -0.09482635 35.27435333 -0.09336853 34.17811584 C-0.08775064 30.76454917 -0.07519511 27.351047 -0.0625 23.9375 C-0.05748731 21.62955824 -0.052924 19.32161545 -0.04882812 17.01367188 C-0.0377754 11.34242574 -0.02101987 5.67121747 0 0 Z " fill="#206410" transform="translate(12,23)"/>
<path d="M0 0 C0.66 0.33 1.32 0.66 2 1 C2 3.64 2 6.28 2 9 C1.01 8.67 0.02 8.34 -1 8 C-4.54178598 7.74996036 -4.54178598 7.74996036 -8 8 C-10.30746414 9.87773264 -10.30746414 9.87773264 -10.25 12.9375 C-10.23517754 16.17282787 -10.23517754 16.17282787 -8 19 C-4.28359861 19.27028374 -1.542799 19.180933 2 18 C2 20.64 2 23.28 2 26 C-2.64398011 27.54799337 -7.32517708 27.49594333 -12 26 C-12 25.34 -12 24.68 -12 24 C-12.61875 23.773125 -13.2375 23.54625 -13.875 23.3125 C-16.76058871 21.53022462 -17.14672476 20.27088842 -18 17 C-18.45737957 12.19751457 -18.5084495 9.99806753 -16.3125 5.6875 C-11.46108637 0.04937064 -7.18506044 -0.73403368 0 0 Z " fill="#1E6712" transform="translate(44,33)"/>
<path d="M0 0 C0.886875 -0.00257812 1.77375 -0.00515625 2.6875 -0.0078125 C5 0.125 5 0.125 7 1.125 C7 3.105 7 5.085 7 7.125 C6.37351563 7.10179687 5.74703125 7.07859375 5.1015625 7.0546875 C4.28429687 7.03664063 3.46703125 7.01859375 2.625 7 C1.40683594 6.96519531 1.40683594 6.96519531 0.1640625 6.9296875 C-2.21342243 6.91129949 -2.21342243 6.91129949 -4 9.125 C-4.45024875 13.81172799 -4.45024875 13.81172799 -2.875 18.125 C-0.03512484 19.63960008 1.95440106 18.88639974 5 18.125 C5.99 17.795 6.98 17.465 8 17.125 C8 19.765 8 22.405 8 25.125 C3.27137323 26.70120892 -2.3026876 27.44893541 -6.91796875 25.18359375 C-10.14386762 22.64270057 -12.18091542 20.12941352 -13 16.125 C-13.1437414 11.28271147 -12.6801837 7.45292526 -9.5625 3.625 C-6.13538308 0.2814713 -4.65392811 -0.01352886 0 0 Z " fill="#0D6323" transform="translate(155,33.875)"/>
<path d="M0 0 C14.52 0 29.04 0 44 0 C44 0.33 44 0.66 44 1 C29.81 1 15.62 1 1 1 C1 13.54 1 26.08 1 39 C4.27421875 38.98839844 7.5484375 38.97679687 10.921875 38.96484375 C14.09244693 38.95704535 17.26301779 38.95097304 20.43359375 38.94506836 C22.63737466 38.94003912 24.84115222 38.93321495 27.04492188 38.92456055 C30.21224796 38.9124334 33.37952994 38.90675759 36.546875 38.90234375 C37.53242371 38.89718246 38.51797241 38.89202118 39.53338623 38.88670349 C40.91436493 38.88659019 40.91436493 38.88659019 42.32324219 38.88647461 C43.1315448 38.884254 43.93984741 38.88203339 44.77264404 38.87974548 C46.97310595 38.998548 48.88748207 39.39025102 51 40 C51 40.66 51 41.32 51 42 C51.86625 42.268125 52.7325 42.53625 53.625 42.8125 C56.92352943 43.97309369 59.87663129 45.43831565 63 47 C64.03125 47.33 65.0625 47.66 66.125 48 C68.98439962 48.99457378 70.60829674 50.20622256 73 52 C75.71511048 53.68304356 75.71511048 53.68304356 79 54 C81.09115986 52.97695412 82.88066452 51.71959979 84.77734375 50.37109375 C87.93884157 48.4208552 91.21376274 47.64062879 94.80078125 46.7734375 C97.25237763 45.91124197 98.25080071 44.87238234 100 43 C103.60877744 41.5878697 107.18805137 40.67269682 111 40 C108.59550892 42.73033798 106.13525714 44.06655763 102.8515625 45.59375 C101.84609375 46.06683594 100.840625 46.53992188 99.8046875 47.02734375 C98.75539063 47.51332031 97.70609375 47.99929687 96.625 48.5 C94.55362296 49.46647171 92.48327359 50.43514966 90.4140625 51.40625 C89.03661865 52.04530273 89.03661865 52.04530273 87.63134766 52.69726562 C84.94307191 53.97642561 84.94307191 53.97642561 82.30834961 55.66748047 C80 57 80 57 77.65234375 56.9140625 C74.12875656 55.69974821 70.86254127 54.08804787 67.5625 52.375 C65.54079014 51.34219269 63.5189365 50.31325148 61.48339844 49.30786133 C59 48 59 48 56.16503906 46.19799805 C45.06241715 39.64169396 34.25374634 39.9897262 21.625 40.0625 C19.52081138 40.04936504 17.41663981 40.0331123 15.3125 40.01367188 C10.20688271 39.96743991 5.10724887 39.98506652 0 40 C0 26.8 0 13.6 0 0 Z " fill="#A5C32C" transform="translate(17,27)"/>
<path d="M0 0 C1.35106087 0.00022659 1.35106087 0.00022659 2.72941589 0.00045776 C3.69825211 0.01078033 4.66708832 0.02110291 5.6652832 0.03173828 C7.15714897 0.03598312 7.15714897 0.03598312 8.67915344 0.04031372 C11.85824576 0.05151589 15.03705717 0.07662064 18.21606445 0.10205078 C20.37035726 0.11208053 22.52465448 0.12120639 24.67895508 0.12939453 C29.96225417 0.15145532 35.24538925 0.18493322 40.52856445 0.22705078 C40.52856445 0.55705078 40.52856445 0.88705078 40.52856445 1.22705078 C26.00856445 1.22705078 11.48856445 1.22705078 -3.47143555 1.22705078 C-2.81143555 2.87705078 -2.15143555 4.52705078 -1.47143555 6.22705078 C-2.60581055 6.75814453 -3.74018555 7.28923828 -4.90893555 7.83642578 C-6.42979361 8.54991475 -7.95062554 9.2634594 -9.47143555 9.97705078 C-10.58711914 10.49912109 -10.58711914 10.49912109 -11.7253418 11.03173828 C-12.8371582 11.55380859 -12.8371582 11.55380859 -13.97143555 12.08642578 C-14.71651367 12.43511719 -15.4615918 12.78380859 -16.22924805 13.14306641 C-17.73861567 13.8727694 -19.23367959 14.6327399 -20.71362305 15.42041016 C-22.59857791 16.42330281 -24.53256516 17.33283039 -26.47143555 18.22705078 C-27.46143555 17.89705078 -28.45143555 17.56705078 -29.47143555 17.22705078 C-27.07634216 14.32772721 -25.15898312 13.72536802 -21.47143555 13.22705078 C-21.47143555 12.56705078 -21.47143555 11.90705078 -21.47143555 11.22705078 C-22.13143555 10.89705078 -22.79143555 10.56705078 -23.47143555 10.22705078 C-22.35124023 9.67275391 -21.23104492 9.11845703 -20.0769043 8.54736328 C-18.60419517 7.81569887 -17.13154182 7.08392217 -15.65893555 6.35205078 C-14.92094727 5.98724609 -14.18295898 5.62244141 -13.42260742 5.24658203 C-12.71040039 4.89208984 -11.99819336 4.53759766 -11.2644043 4.17236328 C-10.60980225 3.84768066 -9.9552002 3.52299805 -9.28076172 3.18847656 C-3.24608135 -0.01818533 -3.24608135 -0.01818533 0 0 Z " fill="#397216" transform="translate(132.471435546875,66.77294921875)"/>
<path d="M0 0 C15 0 15 0 20 1 C25.11547663 6.34799829 26.37875019 10.16261222 26.2734375 17.35546875 C25.85889766 21.36466125 24.86219175 25.07324754 22 28 C15 30 15 30 0 31 C0 20.77 0 10.54 0 0 Z M1 2 C1 10.58 1 19.16 1 28 C3.35125 28.0825 5.7025 28.165 8.125 28.25 C9.21772217 28.30462402 9.21772217 28.30462402 10.33251953 28.36035156 C15.40007317 28.44556673 18.13527027 27.18811533 22 24 C25.10978403 19.33532396 24.73025717 14.45848796 24 9 C21.49602844 5.52226172 18.95831784 3.54537066 15 2 C11.49130586 1.75827293 11.49130586 1.75827293 7.75 1.875 C5.5225 1.91625 3.295 1.9575 1 2 Z " fill="#C7DA2C" transform="translate(84,32)"/>
<path d="M0 0 C15.84 0.33 31.68 0.66 48 1 C48 14.86 48 28.72 48 43 C47.67 43 47.34 43 47 43 C47 30.79 47 18.58 47 6 C42.711992 3.855996 40.50060635 3.71272463 35.77734375 3.62109375 C34.72626183 3.59560204 34.72626183 3.59560204 33.65394592 3.56959534 C31.41522225 3.51663528 29.17650938 3.4763407 26.9375 3.4375 C24.0089884 3.37878217 21.08064569 3.3144496 18.15234375 3.24609375 C17.44830414 3.23017181 16.74426453 3.21424988 16.01889038 3.19784546 C10.31599002 3.05046404 4.66780873 2.6365491 -1 2 C-0.67 1.34 -0.34 0.68 0 0 Z " fill="#125825" transform="translate(129,23)"/>
<path d="M0 0 C1.23556641 0.01740234 1.23556641 0.01740234 2.49609375 0.03515625 C3.32238281 0.04417969 4.14867188 0.05320313 5 0.0625 C5.63808594 0.07410156 6.27617188 0.08570313 6.93359375 0.09765625 C6.93359375 0.75765625 6.93359375 1.41765625 6.93359375 2.09765625 C5.61359375 2.09765625 4.29359375 2.09765625 2.93359375 2.09765625 C2.93359375 8.69765625 2.93359375 15.29765625 2.93359375 22.09765625 C-2.06640625 21.09765625 -2.06640625 21.09765625 -3.06640625 20.09765625 C-3.16500756 18.6941689 -3.19719562 17.28585148 -3.19921875 15.87890625 C-3.20050781 15.02941406 -3.20179687 14.17992187 -3.203125 13.3046875 C-3.19925781 12.41136719 -3.19539063 11.51804687 -3.19140625 10.59765625 C-3.19527344 9.70433594 -3.19914062 8.81101562 -3.203125 7.890625 C-3.20183594 7.04113281 -3.20054688 6.19164062 -3.19921875 5.31640625 C-3.19809082 4.53201172 -3.19696289 3.74761719 -3.19580078 2.93945312 C-3.00953844 0.28820197 -2.65179495 0.12532112 0 0 Z " fill="#14621A" transform="translate(89.06640625,35.90234375)"/>
<path d="M0 0 C0.66 0.33 1.32 0.66 2 1 C2 2.98 2 4.96 2 7 C1.37351563 6.97679687 0.74703125 6.95359375 0.1015625 6.9296875 C-0.71570313 6.91164063 -1.53296875 6.89359375 -2.375 6.875 C-3.59316406 6.84019531 -3.59316406 6.84019531 -4.8359375 6.8046875 C-7.21342243 6.78629949 -7.21342243 6.78629949 -9 9 C-9.35173852 12.79877599 -9.52701444 15.14360153 -7.5 18.4375 C-7.005 18.953125 -6.51 19.46875 -6 20 C-8.375 19.8125 -8.375 19.8125 -11 19 C-13.16789459 15.38684234 -13.19258541 12.14058636 -13 8 C-12.34 8 -11.68 8 -11 8 C-10.62875 7.505 -10.2575 7.01 -9.875 6.5 C-6.82907612 4.06326089 -3.81223906 4.81251283 0 5 C0 4.01 0 3.02 0 2 C-5.82681177 2.25389158 -9.74415528 2.61116013 -14 7 C-15.38226016 9.76452033 -15.09525387 12.0461363 -15.0625 15.125 C-15.04896484 16.76855469 -15.04896484 16.76855469 -15.03515625 18.4453125 C-15.02355469 19.28835937 -15.01195312 20.13140625 -15 21 C-17.73472671 18.26527329 -17.69567077 16.07335658 -18.02734375 12.31640625 C-17.97287103 7.70178884 -15.86018292 4.99051366 -12.9375 1.625 C-8.7074005 -0.71505504 -4.7414952 -0.51191364 0 0 Z " fill="#2A6408" transform="translate(160,34)"/>
<path d="M0 0 C2.97423344 0.41500932 5.62925546 0.8458829 8.41088867 2.00219727 C17.66558928 5.56881314 29.33516787 4.30157455 39.1875 4.5625 C40.72722239 4.60580621 42.26693606 4.64942381 43.80664062 4.69335938 C47.53766684 4.79915736 51.26879289 4.90076068 55 5 C55.495 5.99 55.495 5.99 56 7 C49.78865856 7.02469492 43.57734562 7.04285758 37.3659668 7.05493164 C35.25235496 7.05996444 33.13874662 7.0667912 31.02514648 7.07543945 C27.98941182 7.08755104 24.95372314 7.09323881 21.91796875 7.09765625 C20.97100632 7.10281754 20.02404388 7.10797882 19.04838562 7.11329651 C18.16769913 7.11337204 17.28701263 7.11344757 16.37963867 7.11352539 C15.60464523 7.115746 14.82965179 7.11796661 14.03117371 7.12025452 C12 7 12 7 9 6 C9 5.34 9 4.68 9 4 C7.88625 3.8453125 7.88625 3.8453125 6.75 3.6875 C3.82985982 2.95746496 2.26812446 1.93210602 0 0 Z " fill="#296906" transform="translate(117,21)"/>
<path d="M0 0 C0.99 0.33 1.98 0.66 3 1 C3.33 13.54 3.66 26.08 4 39 C2.68 39 1.36 39 0 39 C0 26.13 0 13.26 0 0 Z " fill="#367110" transform="translate(173,28)"/>
<path d="M0 0 C0.33 0 0.66 0 1 0 C1 12.87 1 25.74 1 39 C4.10921875 38.93039063 7.2184375 38.86078125 10.421875 38.7890625 C13.47017758 38.74212242 16.51843821 38.70577508 19.56689453 38.67041016 C21.6676671 38.64044055 23.76831673 38.5996497 25.86865234 38.54736328 C48.26735811 38.0041707 48.26735811 38.0041707 58 45 C58 45.33 58 45.66 58 46 C56.35 46 54.7 46 53 46 C53 45.34 53 44.68 53 44 C50.525 44.495 50.525 44.495 48 45 C47.67 44.01 47.34 43.02 47 42 C41.79573224 40.95988674 36.73049977 40.78560671 31.4453125 40.68359375 C30.54376434 40.66281265 29.64221619 40.64203156 28.71334839 40.62062073 C25.8506386 40.5555542 22.98784181 40.49644086 20.125 40.4375 C18.17707456 40.39427393 16.22915771 40.35065836 14.28125 40.30664062 C9.52092096 40.19918856 4.76052024 40.09979681 0 40 C0 26.8 0 13.6 0 0 Z " fill="#266001" transform="translate(16,28)"/>
<path d="M0 0 C6.75 0.75 6.75 0.75 9 3 C9.23046875 4.875 9.23046875 4.875 9.1875 7 C9.17783203 8.051875 9.17783203 8.051875 9.16796875 9.125 C9 11 9 11 8 13 C5.35139573 13.59355614 2.70802678 13.74209269 0 14 C0 9.38 0 4.76 0 0 Z " fill="#C8E339" transform="translate(92,40)"/>
<path d="M0 0 C-0.33 1.32 -0.66 2.64 -1 4 C-3.97 3.67 -6.94 3.34 -10 3 C-12.03979943 9.994421 -12.03979943 9.994421 -10.75 16.875 C-9.10021499 19.26175558 -9.10021499 19.26175558 -6 20 C-6 20.99 -6 21.98 -6 23 C-9.35289282 22.71260919 -11.03956604 21.97186415 -13.8125 20 C-16.82270308 15.87172149 -16.48368597 12.92643117 -16 8 C-16 7.05125 -16 6.1025 -16 5.125 C-14.77037617 2.51204935 -13.98782854 2.28206331 -11.375 1.1875 C-7.45035507 -0.073487 -4.09534195 -0.25595887 0 0 Z " fill="#0F6329" transform="translate(44,35)"/>
<path d="M0 0 C-0.75 7.625 -0.75 7.625 -3 11 C-3.4562792 13.57713254 -3.82945276 16.09298285 -4.125 18.6875 C-4.21136719 19.38939453 -4.29773438 20.09128906 -4.38671875 20.81445312 C-4.59826875 22.54211145 -4.800086 24.2709566 -5 26 C-5.66 26 -6.32 26 -7 26 C-7.33 26.66 -7.66 27.32 -8 28 C-8 20.74 -8 13.48 -8 6 C-7.01 5.67 -6.02 5.34 -5 5 C-5 3.68 -5 2.36 -5 1 C-3 0 -3 0 0 0 Z " fill="#F7E50C" transform="translate(27,31)"/>
<path d="M0 0 C0.33 0 0.66 0 1 0 C1 15.51 1 31.02 1 47 C17.83 47 34.66 47 52 47 C52.495 48.98 52.495 48.98 53 51 C52.06140137 50.67330322 51.12280273 50.34660645 50.15576172 50.01000977 C45.28853997 48.62716025 40.53221606 48.76828531 35.5078125 48.83984375 C34.02799393 48.8476461 34.02799393 48.8476461 32.51828003 48.85560608 C29.38703266 48.87333258 26.25612092 48.9045231 23.125 48.9375 C19.97249 48.96509046 16.82002421 48.98976737 13.66744995 49.00868225 C11.70982731 49.0209738 9.7522298 49.0386105 7.79470825 49.06199646 C6.91644379 49.06852737 6.03817932 49.07505829 5.13330078 49.08178711 C4.35721466 49.09004013 3.58112854 49.09829315 2.78152466 49.10679626 C1 49 1 49 0 48 C-0.09311889 46.49581261 -0.11746028 44.98728644 -0.11352539 43.48022461 C-0.11344986 42.51930405 -0.11337433 41.55838348 -0.11329651 40.56834412 C-0.10813522 39.523564 -0.10297394 38.47878387 -0.09765625 37.40234375 C-0.0962413 36.33834854 -0.09482635 35.27435333 -0.09336853 34.17811584 C-0.08775064 30.76454917 -0.07519511 27.351047 -0.0625 23.9375 C-0.05748731 21.62955824 -0.052924 19.32161545 -0.04882812 17.01367188 C-0.0377754 11.34242574 -0.02101987 5.67121747 0 0 Z " fill="#639374" transform="translate(12,23)"/>
<path d="M0 0 C1.32 0.33 2.64 0.66 4 1 C4 1.66 4 2.32 4 3 C4.804375 2.979375 5.60875 2.95875 6.4375 2.9375 C9 3 9 3 10 4 C10.2039085 5.95169561 10.3138543 7.91363424 10.375 9.875 C10.42398438 10.94492187 10.47296875 12.01484375 10.5234375 13.1171875 C10 16 10 16 7.7265625 17.8828125 C5 19 5 19 1 19 C1.33 17.68 1.66 16.36 2 15 C2.66 15 3.32 15 4 15 C4.04125 13.741875 4.0825 12.48375 4.125 11.1875 C4.15980469 10.12595703 4.15980469 10.12595703 4.1953125 9.04296875 C4.13254462 6.68640281 4.13254462 6.68640281 2 4 C2 3.01 2 2.02 2 1 C1.34 0.67 0.68 0.34 0 0 Z " fill="#176318" transform="translate(98,37)"/>
<path d="M0 0 C0.66 0 1.32 0 2 0 C3.26026798 2.52053595 2.91874445 3.8542098 2.5625 6.625 C2.46066406 7.44226562 2.35882813 8.25953125 2.25390625 9.1015625 C2.17011719 9.72804688 2.08632813 10.35453125 2 11 C1.01 11.33 0.02 11.66 -1 12 C-1 11.34 -1 10.68 -1 10 C-4.62528568 9.79859524 -6.86501708 10.14223235 -10 12 C-9.67 13.32 -9.34 14.64 -9 16 C-6.69 16.33 -4.38 16.66 -2 17 C-2.33 17.66 -2.66 18.32 -3 19 C-9.42210386 19.48468708 -9.42210386 19.48468708 -11.9375 17.375 C-13.295454 14.33957342 -13.42030443 12.29238472 -13 9 C-11.9375 7.125 -11.9375 7.125 -10 6 C-5.63293092 5.61008312 -3.69486103 5.53675931 0 8 C0 5.36 0 2.72 0 0 Z " fill="#F7E619" transform="translate(46,34)"/>
<path d="M0 0 C0.92466064 0.44287354 1.84932129 0.88574707 2.80200195 1.34204102 C3.81456055 1.82608398 4.82711914 2.31012695 5.87036133 2.80883789 C6.91643555 3.31608398 7.96250977 3.82333008 9.0402832 4.34594727 C10.09795898 4.84932617 11.15563477 5.35270508 12.24536133 5.87133789 C20.09023702 9.64590108 20.09023702 9.64590108 22.3527832 11.90844727 C15.49104971 10.90429114 9.47984947 9.19614136 3.3527832 5.90844727 C3.3527832 5.24844727 3.3527832 4.58844727 3.3527832 3.90844727 C0.8777832 3.41344727 0.8777832 3.41344727 -1.6472168 2.90844727 C-1.6472168 2.24844727 -1.6472168 1.58844727 -1.6472168 0.90844727 C-5.36143243 0.64314615 -7.39642896 0.78305335 -10.7722168 2.47094727 C-13.94381386 4.0567458 -14.46325829 3.94015914 -17.6472168 2.90844727 C-16.0942892 2.03699857 -14.52936244 1.1869107 -12.9597168 0.34594727 C-12.08959961 -0.1297168 -11.21948242 -0.60538086 -10.32299805 -1.09545898 C-6.39961025 -2.55599021 -3.80004801 -1.56691088 0 0 Z " fill="#D9E12F" transform="translate(100.647216796875,13.091552734375)"/>
<path d="M0 0 C2.31 0 4.62 0 7 0 C7 0.99 7 1.98 7 3 C8.010625 2.9175 9.02125 2.835 10.0625 2.75 C14.90275368 3.05731769 16.99368267 4.3836295 21 7 C21 7.99 21 8.98 21 10 C21.59167969 9.9278125 22.18335937 9.855625 22.79296875 9.78125 C26.88261722 9.30089977 30.8738531 8.86689849 35 9 C34 11 34 11 31.875 12.1875 C24.33218552 14.31916496 17.76656645 10.31486049 11.125 7.0625 C10.16335937 6.60681641 9.20171875 6.15113281 8.2109375 5.68164062 C1.13407762 2.26815525 1.13407762 2.26815525 0 0 Z " fill="#276932" transform="translate(69,76)"/>
<path d="M0 0 C0.66 0.33 1.32 0.66 2 1 C2 1.66 2 2.32 2 3 C0.72942818 3.47985967 -0.54146848 3.9588593 -1.8125 4.4375 C-2.87404297 4.83775391 -2.87404297 4.83775391 -3.95703125 5.24609375 C-5.62672396 5.86225186 -7.31157704 6.43719235 -9 7 C-9 7.66 -9 8.32 -9 9 C-11.64 9.33 -14.28 9.66 -17 10 C-17 10.66 -17 11.32 -17 12 C-31.52 12 -46.04 12 -61 12 C-61.33 12.99 -61.66 13.98 -62 15 C-62 13.68 -62 12.36 -62 11 C-60.17178711 11.01740234 -60.17178711 11.01740234 -58.30664062 11.03515625 C-53.70637312 11.06813144 -49.10753151 11.04752965 -44.50732422 11.01220703 C-42.53109384 11.00418531 -40.55475039 11.00995332 -38.57861328 11.03076172 C-23.13230636 11.17966067 -12.8708372 8.58055813 0 0 Z " fill="#E7EB3B" transform="translate(80,17)"/>
<path d="M0 0 C14.78132118 -0.738041 14.78132118 -0.738041 21 4 C21 4.66 21 5.32 21 6 C19.68 6 18.36 6 17 6 C16.34 5.34 15.68 4.68 15 4 C15.515625 4.825 16.03125 5.65 16.5625 6.5 C18.40629292 10.98923493 17.89204658 13.29648165 17 18 C16.34 17.67 15.68 17.34 15 17 C15 14.36 15 11.72 15 9 C12.36 8.01 9.72 7.02 7 6 C7 5.34 7 4.68 7 4 C8.32 4 9.64 4 11 4 C11 3.01 11 2.02 11 1 C7.37 1 3.74 1 0 1 C0 0.67 0 0.34 0 0 Z " fill="#356F09" transform="translate(85,34)"/>
<path d="M0 0 C0.66 0 1.32 0 2 0 C2.3644294 5.34496452 2.3644294 5.34496452 0.78515625 8.18359375 C-1 10 -1 10 -3.234375 10.42578125 C-5.82664401 10.30904864 -8.41206498 10.19213457 -11 10 C-11.70640625 9.96777344 -12.4128125 9.93554688 -13.140625 9.90234375 C-15 9.75 -15 9.75 -18 9 C-19.5 7.1875 -19.5 7.1875 -20 5 C-19.625 2.75 -19.625 2.75 -19 1 C-17.62437146 2.28965176 -16.29233607 3.62689293 -15 5 C-15 5.66 -15 6.32 -15 7 C-10.38 7 -5.76 7 -1 7 C-1 5.02 -1 3.04 -1 1 C-0.67 0.67 -0.34 0.34 0 0 Z " fill="#DCE22B" transform="translate(47,52)"/>
<path d="M0 0 C0 2.64 0 5.28 0 8 C-4.33400534 9.44466845 -8.47615448 9.67713611 -13 9 C-15.2902332 7.55087014 -16.34557976 6.20589365 -18 4 C-16.68 4 -15.36 4 -14 4 C-14 4.66 -14 5.32 -14 6 C-11.03 6 -8.06 6 -5 6 C-6.32 5.67 -7.64 5.34 -9 5 C-9 4.34 -9 3.68 -9 3 C-2.25 0 -2.25 0 0 0 Z " fill="#136012" transform="translate(163,51)"/>
<path d="M0 0 C0.33 0 0.66 0 1 0 C1 2.64 1 5.28 1 8 C-1.22926402 8 -3.45883857 7.98932934 -5.6875 7.9375 C-7.96298597 7.73373775 -7.96298597 7.73373775 -9 9 C-9.16666667 12 -9.16666667 12 -9 15 C-7.81575674 16.41577477 -7.81575674 16.41577477 -4.4375 16.0625 C-2.7359375 16.0315625 -2.7359375 16.0315625 -1 16 C-2.125 17.5625 -2.125 17.5625 -4 19 C-7.0625 18.875 -7.0625 18.875 -10 18 C-12.46324069 14.30513897 -12.38991688 12.36706908 -12 8 C-10.7734375 6.26171875 -10.7734375 6.26171875 -9 5 C-6.73828125 4.92578125 -6.73828125 4.92578125 -4.3125 5.3125 C-3.50425781 5.43238281 -2.69601563 5.55226563 -1.86328125 5.67578125 C-1.24839844 5.78277344 -0.63351563 5.88976563 0 6 C0 4.02 0 2.04 0 0 Z " fill="#C3D835" transform="translate(162,35)"/>
<path d="M0 0 C0.99 0.33 1.98 0.66 3 1 C-21.6454918 14.40368852 -21.6454918 14.40368852 -29 15 C-27.36923087 11.73846174 -24.19726453 10.48095915 -21 9 C-18.42666137 8.18244915 -15.85367505 7.46341876 -13.234375 6.80859375 C-10.77421541 5.91829124 -9.76763888 4.87656901 -8 3 C-6.02111039 2.27306096 -4.02045442 1.60183749 -2 1 C-1.34 0.67 -0.68 0.34 0 0 Z " fill="#D6E237" transform="translate(125,67)"/>
<path d="M0 0 C0.78375 0.04125 1.5675 0.0825 2.375 0.125 C3.18467438 3.03982778 3.59345993 4.58613217 2.4375 7.4375 C1.9115625 8.2728125 1.9115625 8.2728125 1.375 9.125 C-0.29111905 9.167721 -1.95882885 9.16563832 -3.625 9.125 C-4.625 8.125 -4.625 8.125 -4.8125 5.1875 C-4.57390036 1.29037256 -3.98646018 0.18983144 0 0 Z " fill="#F6E60A" transform="translate(156.625,41.875)"/>
<path d="M0 0 C1.19109375 -0.00386719 1.19109375 -0.00386719 2.40625 -0.0078125 C4.5 0.125 4.5 0.125 6.5 1.125 C6.5 3.765 6.5 6.405 6.5 9.125 C3.86 8.465 1.22 7.805 -1.5 7.125 C-1.5 6.795 -1.5 6.465 -1.5 6.125 C0.15 5.795 1.8 5.465 3.5 5.125 C3.83 4.135 4.16 3.145 4.5 2.125 C3.83613281 2.25777344 3.17226563 2.39054687 2.48828125 2.52734375 C-1.84114583 3.39322917 -6.17057292 4.25911458 -10.5 5.125 C-6.89667599 1.40156519 -5.1981635 -0.01687715 0 0 Z " fill="#46760A" transform="translate(39.5,32.875)"/>
<path d="M0 0 C0.99 0.33 1.98 0.66 3 1 C4.67695614 6.03086841 4.95382409 11.40509865 3.10546875 16.43359375 C2.14852109 18.33058187 1.08317266 20.17214614 0 22 C-1.65 21.67 -3.3 21.34 -5 21 C-3 19 -1 17 1 15 C1.09927286 13.0437407 1.12969729 11.08377091 1.125 9.125 C1.12757812 8.05507813 1.13015625 6.98515625 1.1328125 5.8828125 C1.12784318 2.92980831 1.12784318 2.92980831 0 0 Z " fill="#CEE32D" transform="translate(106,38)"/>
<path d="M0 0 C4.29 0 8.58 0 13 0 C13 0.33 13 0.66 13 1 C12.00419922 1.12955078 12.00419922 1.12955078 10.98828125 1.26171875 C5.14110314 2.19214563 1.7860503 3.1147738 -2 8 C-3.32229189 10.64458379 -3.09677194 12.67761301 -3.0625 15.625 C-3.05347656 16.62789062 -3.04445313 17.63078125 -3.03515625 18.6640625 C-3.02355469 19.43492188 -3.01195313 20.20578125 -3 21 C-3.66 21 -4.32 21 -5 21 C-5.55353075 8.33029613 -5.55353075 8.33029613 -2 3 C-1.34 3 -0.68 3 0 3 C0 2.01 0 1.02 0 0 Z " fill="#D1E231" transform="translate(30,32)"/>
<path d="M0 0 C1.09054688 0.02320312 2.18109375 0.04640625 3.3046875 0.0703125 C4.40039062 0.08835937 5.49609375 0.10640625 6.625 0.125 C7.46804687 0.14820312 8.31109375 0.17140625 9.1796875 0.1953125 C7.18112833 3.69422268 5.57634508 5.96991615 2.1796875 8.1953125 C2.5096875 5.8853125 2.8396875 3.5753125 3.1796875 1.1953125 C1.5296875 1.5253125 -0.1203125 1.8553125 -1.8203125 2.1953125 C-1.8203125 3.5153125 -1.8203125 4.8353125 -1.8203125 6.1953125 C-2.8103125 6.5253125 -3.8003125 6.8553125 -4.8203125 7.1953125 C-4.9453125 4.8203125 -4.9453125 4.8203125 -4.8203125 2.1953125 C-2.8203125 0.1953125 -2.8203125 0.1953125 0 0 Z " fill="#F0E70C" transform="translate(23.8203125,29.8046875)"/>
<path d="M0 0 C1.32 0 2.64 0 4 0 C5.4783226 2.95664519 5.06032783 5.74229737 5 9 C3.35 9.33 1.7 9.66 0 10 C0 6.7 0 3.4 0 0 Z " fill="#F5E312" transform="translate(94,42)"/>
<path d="M0 0 C2 1 2 1 3 3 C-2.77874846 6.25711277 -7.37822074 7.69343615 -14 8 C-11.10181338 5.70841058 -8.16859456 3.92137634 -4.875 2.25 C-4.00617188 1.80140625 -3.13734375 1.3528125 -2.2421875 0.890625 C-1.50226563 0.59671875 -0.76234375 0.3028125 0 0 Z " fill="#36754C" transform="translate(73,15)"/>
<path d="M0 0 C0.33 0.66 0.66 1.32 1 2 C-0.134375 1.979375 -1.26875 1.95875 -2.4375 1.9375 C-5.81575674 1.58422523 -5.81575674 1.58422523 -7 3 C-7.33340471 5.95804573 -7.33340471 5.95804573 -7 9 C-3.77208445 11.1519437 -2.71599191 11.20086443 1 11 C0.67 11.66 0.34 12.32 0 13 C-6.42210386 13.48468708 -6.42210386 13.48468708 -8.9375 11.375 C-10.295454 8.33957342 -10.42030443 6.29238472 -10 3 C-7.7109263 -1.03954182 -4.21983723 -0.23885871 0 0 Z " fill="#C5DD3A" transform="translate(43,40)"/>
<path d="M0 0 C0.33 0 0.66 0 1 0 C0.98839844 0.97582031 0.97679687 1.95164063 0.96484375 2.95703125 C0.95582031 4.22933594 0.94679688 5.50164063 0.9375 6.8125 C0.92589844 8.07707031 0.91429687 9.34164062 0.90234375 10.64453125 C0.83840884 13.99605237 0.83840884 13.99605237 2 17 C3.93330603 18.09166275 3.93330603 18.09166275 6 19 C6.66 19.66 7.32 20.32 8 21 C6.68 21 5.36 21 4 21 C4 20.34 4 19.68 4 19 C3.38125 18.773125 2.7625 18.54625 2.125 18.3125 C-0.76058871 16.53022462 -1.14672476 15.27088842 -2 12 C-2.41515928 7.64947674 -2.50455205 3.75682808 0 0 Z " fill="#356A04" transform="translate(28,38)"/>
<path d="M0 0 C1.65 0 3.3 0 5 0 C5 0.66 5 1.32 5 2 C5.88751953 1.89171875 5.88751953 1.89171875 6.79296875 1.78125 C10.88261722 1.30089977 14.8738531 0.86689849 19 1 C18 3 18 3 15.875 4.1875 C10.9344623 5.58373892 7.15900989 4.52682268 2.5625 2.4375 C1.716875 1.963125 0.87125 1.48875 0 1 C0 0.67 0 0.34 0 0 Z " fill="#54896E" transform="translate(85,84)"/>
<path d="M0 0 C1.41778293 2.83556587 0.86257622 4.9908706 0.5625 8.125 C0.46066406 9.22070312 0.35882812 10.31640625 0.25390625 11.4453125 C0.17011719 12.28835937 0.08632813 13.13140625 0 14 C0.66 14 1.32 14 2 14 C1.67 15.32 1.34 16.64 1 18 C0.34 17.34 -0.32 16.68 -1 16 C-1.66 16 -2.32 16 -3 16 C-2.88590318 13.89521396 -2.75834639 11.79115423 -2.625 9.6875 C-2.55539063 8.51574219 -2.48578125 7.34398437 -2.4140625 6.13671875 C-2 3 -2 3 0 0 Z " fill="#ECEC1A" transform="translate(25,39)"/>
<path d="M0 0 C0.66 0.33 1.32 0.66 2 1 C2 1.66 2 2.32 2 3 C0.72942818 3.47985967 -0.54146848 3.9588593 -1.8125 4.4375 C-2.87404297 4.83775391 -2.87404297 4.83775391 -3.95703125 5.24609375 C-5.62672396 5.86225186 -7.31157704 6.43719235 -9 7 C-9 7.66 -9 8.32 -9 9 C-12.3 9.66 -15.6 10.32 -19 11 C-15.56634612 7.56634612 -12.23786517 5.87927011 -7.9375 3.75 C-6.83825195 3.18539063 -6.83825195 3.18539063 -5.71679688 2.609375 C-3.8428798 1.67327685 -1.92372213 0.82893794 0 0 Z " fill="#C7DB33" transform="translate(80,17)"/>
<path d="M0 0 C2.02237052 0.95394836 4.0282696 1.94535351 6 3 C3 4 3 4 0.5625 3 C-2.33792336 1.86812747 -3.15366842 1.93262566 -6 3 C-6.825 3.37125 -7.65 3.7425 -8.5 4.125 C-11.2878429 5.10074502 -12.258015 4.82491922 -15 4 C-13.4470724 3.12855131 -11.88214564 2.27846343 -10.3125 1.4375 C-9.44238281 0.96183594 -8.57226562 0.48617188 -7.67578125 -0.00390625 C-4.55357127 -1.1661888 -3.13930632 -0.99135989 0 0 Z " fill="#CBDD3B" transform="translate(98,12)"/>
<path d="M0 0 C2.64 0 5.28 0 8 0 C7.4225 0.268125 6.845 0.53625 6.25 0.8125 C2.88806396 2.5751939 2.88806396 2.5751939 0 5 C-0.50476722 8.95400991 -0.0880823 11.60686626 2 15 C1.01 15 0.02 15 -1 15 C-2.88453599 12.22862355 -2.99438022 10.92132313 -2.75 7.5 C-2.1281105 4.59784899 -1.50963012 2.5160502 0 0 Z " fill="#1D660D" transform="translate(34,38)"/>
<path d="M0 0 C0.66 0.33 1.32 0.66 2 1 C1.175 1.9075 0.35 2.815 -0.5 3.75 C-4.14743033 8.73310905 -3.43675804 14.0892078 -3 20 C-5.73402174 17.26597826 -5.69114093 15.07430429 -6.03515625 11.3203125 C-5.97057139 7.05771181 -4.08889577 4.20988419 -1.3125 1.125 C-0.879375 0.75375 -0.44625 0.3825 0 0 Z " fill="#3D6E06" transform="translate(148,35)"/>
<path d="M0 0 C2.3125 0.8125 2.3125 0.8125 3.3125 2.8125 C2.02336513 3.48404933 0.73109796 4.14958859 -0.5625 4.8125 C-1.28179687 5.18375 -2.00109375 5.555 -2.7421875 5.9375 C-4.6875 6.8125 -4.6875 6.8125 -6.6875 6.8125 C-6.6875 2.8125 -6.6875 2.8125 -5 1 C-2.6875 -0.1875 -2.6875 -0.1875 0 0 Z " fill="#377648" transform="translate(127.6875,70.1875)"/>
<path d="M0 0 C0 0.66 0 1.32 0 2 C-3.56086658 3.18695553 -6.97331024 3.35095418 -10.6875 3.5625 C-11.38939453 3.60568359 -12.09128906 3.64886719 -12.81445312 3.69335938 C-14.54275206 3.7991736 -16.2713511 3.90006581 -18 4 C-18 3.01 -18 2.02 -18 1 C-15.37504621 0.83257698 -12.75004205 0.6660283 -10.125 0.5 C-9.00544922 0.42845703 -9.00544922 0.42845703 -7.86328125 0.35546875 C-2.2265625 0 -2.2265625 0 0 0 Z " fill="#DCE938" transform="translate(102,59)"/>
<path d="M0 0 C0.66 0.33 1.32 0.66 2 1 C-1.51822249 5.43601966 -5.75390186 6.52033129 -11 8 C-11.66 7.34 -12.32 6.68 -13 6 C-10.87959258 4.96966118 -8.75352092 3.95097146 -6.625 2.9375 C-5.44164063 2.36902344 -4.25828125 1.80054688 -3.0390625 1.21484375 C-2.03617188 0.81394531 -1.03328125 0.41304687 0 0 Z " fill="#40774F" transform="translate(88,8)"/>
<path d="M0 0 C2.68181161 1.22916365 4.7579008 2.47783914 7 4.375 C1.78020872 4.5549928 -2.07262981 4.34594808 -7 2.375 C-4.43493139 -0.19006861 -3.64869104 -0.76014397 0 0 Z " fill="#3D7C57" transform="translate(97,5.625)"/>
<path d="M0 0 C0.33 0.99 0.66 1.98 1 3 C-0.60203467 3.36368892 -2.20674203 3.71561952 -3.8125 4.0625 C-4.70582031 4.25972656 -5.59914063 4.45695312 -6.51953125 4.66015625 C-9 5 -9 5 -12 4 C-4.71428571 -0.57142857 -4.71428571 -0.57142857 0 0 Z " fill="#2D6811" transform="translate(111,78)"/>
<path d="M0 0 C-1 3 -1 3 -3.07421875 4.67578125 C-6.72038457 6.32604856 -9.89852958 6.33357162 -13.8125 6.1875 C-14.85180664 6.16719727 -14.85180664 6.16719727 -15.91210938 6.14648438 C-17.60841265 6.11138845 -19.30431136 6.05758943 -21 6 C-21 5.67 -21 5.34 -21 5 C-20.21496094 4.97421875 -19.42992188 4.9484375 -18.62109375 4.921875 C-12.08596039 4.56905798 -5.53981864 0 0 0 Z " fill="#427508" transform="translate(106,54)"/>
<path d="M0 0 C0 0.99 0 1.98 0 3 C0.66 3.33 1.32 3.66 2 4 C-0.95664519 5.4783226 -3.74229737 5.06032783 -7 5 C-7 3.68 -7 2.36 -7 1 C-2.25 0 -2.25 0 0 0 Z " fill="#1C690C" transform="translate(99,53)"/>
<path d="M0 0 C0 2.64 0 5.28 0 8 C-2.31 8.33 -4.62 8.66 -7 9 C-4 7 -4 7 -2 7 C-2.66 6.01 -3.32 5.02 -4 4 C-6.58380177 3.74969023 -6.58380177 3.74969023 -9 4 C-8.1028125 3.566875 -8.1028125 3.566875 -7.1875 3.125 C-1.11111111 0 -1.11111111 0 0 0 Z " fill="#548106" transform="translate(163,51)"/>
<path d="M0 0 C0.66 0 1.32 0 2 0 C2 1.32 2 2.64 2 4 C2.66 4 3.32 4 4 4 C4 5.65 4 7.3 4 9 C2.35 8.67 0.7 8.34 -1 8 C-1.125 2.25 -1.125 2.25 0 0 Z " fill="#0C6426" transform="translate(88,49)"/>
<path d="M0 0 C1.32 0.33 2.64 0.66 4 1 C4 1.66 4 2.32 4 3 C5.32 3 6.64 3 8 3 C8 4.65 8 6.3 8 8 C7.01 8.33 6.02 8.66 5 9 C2 4.375 2 4.375 2 1 C1.34 0.67 0.68 0.34 0 0 Z " fill="#10642C" transform="translate(98,37)"/>
<path d="M0 0 C1.32 0 2.64 0 4 0 C4 0.66 4 1.32 4 2 C5.98 2 7.96 2 10 2 C10 2.99 10 3.98 10 5 C2.25 4.125 2.25 4.125 0 3 C0 2.01 0 1.02 0 0 Z " fill="#1D642E" transform="translate(65,72)"/>
<path d="M0 0 C0.66 0.99 1.32 1.98 2 3 C-2.72383963 3.65156409 -7.21974517 4.11950637 -12 4 C-12 3.34 -12 2.68 -12 2 C-8.04 1.34 -4.08 0.68 0 0 Z " fill="#185E13" transform="translate(102,82)"/>
<path d="M0 0 C6.75479274 -0.7342166 11.18524285 1.72408048 17 5 C17 5.33 17 5.66 17 6 C15.35 6 13.7 6 12 6 C12 5.34 12 4.68 12 4 C10.35 4.33 8.7 4.66 7 5 C6.67 4.01 6.34 3.02 6 2 C3.03 1.505 3.03 1.505 0 1 C0 0.67 0 0.34 0 0 Z " fill="#1F660A" transform="translate(57,68)"/>
<path d="M0 0 C0.66 0.33 1.32 0.66 2 1 C1.979375 2.010625 1.95875 3.02125 1.9375 4.0625 C1.99687734 7.80327257 2.39795085 11.31244898 3 15 C2.01 14.34 1.02 13.68 0 13 C-0.91903707 8.32822823 -1.30458348 4.63851904 0 0 Z " fill="#076520" transform="translate(29,38)"/>
<path d="M0 0 C0.66 0 1.32 0 2 0 C2 2.64 2 5.28 2 8 C1.01 7.67 0.02 7.34 -1 7 C-0.34 7 0.32 7 1 7 C1 6.01 1 5.02 1 4 C-1.97 3.67 -4.94 3.34 -8 3 C-8 2.67 -8 2.34 -8 2 C-6.865625 1.855625 -5.73125 1.71125 -4.5625 1.5625 C-1.19222799 1.38828522 -1.19222799 1.38828522 0 0 Z " fill="#4A7B09" transform="translate(44,51)"/>
<path d="M0 0 C0.66 0 1.32 0 2 0 C3.35439668 2.70879335 3.06501451 5.00933268 3 8 C1.68 8.33 0.36 8.66 -1 9 C-0.67 6.03 -0.34 3.06 0 0 Z " fill="#D8E119" transform="translate(46,34)"/>
<path d="M0 0 C2.97 0 5.94 0 9 0 C9 0.99 9 1.98 9 3 C6.36 3 3.72 3 1 3 C0.67 2.01 0.34 1.02 0 0 Z " fill="#0D651C" transform="translate(151,36)"/>
<path d="M0 0 C5.75 1.75 5.75 1.75 8 4 C5.1875 4.625 5.1875 4.625 2 5 C1.01 4.34 0.02 3.68 -1 3 C-0.67 2.01 -0.34 1.02 0 0 Z " fill="#41784F" transform="translate(123,19)"/>
<path d="M0 0 C0.99 0.99 1.98 1.98 3 3 C1.73581754 3.69965443 0.46334598 4.38434763 -0.8125 5.0625 C-1.52019531 5.44535156 -2.22789063 5.82820313 -2.95703125 6.22265625 C-5 7 -5 7 -8 6 C-5.60490662 3.10067643 -3.68754757 2.49831724 0 2 C0 1.34 0 0.68 0 0 Z " fill="#3F7652" transform="translate(111,78)"/>
<path d="M0 0 C2.31 0 4.62 0 7 0 C7 0.99 7 1.98 7 3 C8.65 3 10.3 3 12 3 C12 3.99 12 4.98 12 6 C7.76570244 4.68938409 3.92592596 3.05643741 0 1 C0 0.67 0 0.34 0 0 Z " fill="#518261" transform="translate(69,76)"/>
<path d="M0 0 C0.99 0 1.98 0 3 0 C2.67 2.64 2.34 5.28 2 8 C1.01 8 0.02 8 -1 8 C-0.67 5.36 -0.34 2.72 0 0 Z " fill="#F9E305" transform="translate(24,31)"/>
<path d="M0 0 C1.32 0 2.64 0 4 0 C3.67 1.98 3.34 3.96 3 6 C2.01 6.33 1.02 6.66 0 7 C0 4.69 0 2.38 0 0 Z " fill="#F1EA09" transform="translate(94,42)"/>
<path d="M0 0 C-3.62535821 3.17218843 -7.51150278 4.42902597 -12 6 C-12 5.34 -12 4.68 -12 4 C-7.9090934 0.68831371 -5.26371362 -0.50130606 0 0 Z " fill="#2E6B06" transform="translate(79,18)"/>
<path d="M0 0 C-2 3 -2 3 -4.1640625 3.51171875 C-4.97617187 3.56972656 -5.78828125 3.62773437 -6.625 3.6875 C-7.85089844 3.78611328 -7.85089844 3.78611328 -9.1015625 3.88671875 C-9.72804687 3.92410156 -10.35453125 3.96148438 -11 4 C-10.34 3.67 -9.68 3.34 -9 3 C-9 2.34 -9 1.68 -9 1 C-2.25 -1.125 -2.25 -1.125 0 0 Z " fill="#136215" transform="translate(68,22)"/>
<path d="M0 0 C1.98 0.66 3.96 1.32 6 2 C4.71034824 3.37562854 3.37310707 4.70766393 2 6 C1.34 6 0.68 6 0 6 C-1.125 2.25 -1.125 2.25 0 0 Z " fill="#367338" transform="translate(104,10)"/>
<path d="M0 0 C0.66 0.33 1.32 0.66 2 1 C2 1.66 2 2.32 2 3 C0.71211992 3.53012738 -0.58046678 4.0488329 -1.875 4.5625 C-2.95394531 4.99755859 -2.95394531 4.99755859 -4.0546875 5.44140625 C-6 6 -6 6 -8 5 C-6.71475739 4.13619741 -5.42157581 3.28419631 -4.125 2.4375 C-3.04605469 1.72400391 -3.04605469 1.72400391 -1.9453125 0.99609375 C-1.30335937 0.66738281 -0.66140625 0.33867188 0 0 Z " fill="#E4E72C" transform="translate(104,76)"/>
<path d="M0 0 C0.66 0 1.32 0 2 0 C2.36923077 5.53846154 2.36923077 5.53846154 0.5 7.875 C-0.2425 8.431875 -0.2425 8.431875 -1 9 C-1.09765625 2.84765625 -1.09765625 2.84765625 -1 1 C-0.67 0.67 -0.34 0.34 0 0 Z " fill="#E0E622" transform="translate(47,52)"/>
<path d="M0 0 C2.125 0.375 2.125 0.375 4 1 C3.01 1.33 2.02 1.66 1 2 C1 3.32 1 4.64 1 6 C0.01 6.33 -0.98 6.66 -2 7 C-2.125 4.625 -2.125 4.625 -2 2 C-1.34 1.34 -0.68 0.68 0 0 Z " fill="#ECEE03" transform="translate(21,30)"/>
<path d="M0 0 C1.32 0 2.64 0 4 0 C4 0.66 4 1.32 4 2 C6.475 2.99 6.475 2.99 9 4 C7.3125 4.8125 7.3125 4.8125 5 5 C2.25 2.5625 2.25 2.5625 0 0 Z " fill="#336F05" transform="translate(145,55)"/>
<path d="M0 0 C0.33 0 0.66 0 1 0 C1.28875 1.11375 1.5775 2.2275 1.875 3.375 C2.69241329 7.00291092 2.69241329 7.00291092 5 9 C3.35 8.67 1.7 8.34 0 8 C-0.79953138 4.71303767 -1.09658936 3.28976808 0 0 Z " fill="#3F7B09" transform="translate(149,45)"/>
<path d="M0 0 C2.64 0 5.28 0 8 0 C7.67 0.66 7.34 1.32 7 2 C4.93359375 2.4140625 4.93359375 2.4140625 2.4375 2.625 C1.61121094 2.69976562 0.78492187 2.77453125 -0.06640625 2.8515625 C-1.02353516 2.92503906 -1.02353516 2.92503906 -2 3 C-1.34 2.67 -0.68 2.34 0 2 C0 1.34 0 0.68 0 0 Z " fill="#337650" transform="translate(96,85)"/>
<path d="M0 0 C4.09305456 1.65296434 7.58983503 3.13546142 11 6 C6.64477147 5.49357808 3.55760365 4.61588503 0 2 C0 1.34 0 0.68 0 0 Z " fill="#2C6802" transform="translate(83,78)"/>
<path d="M0 0 C0.99 0 1.98 0 3 0 C2.67 0.99 2.34 1.98 2 3 C-1.96 3 -5.92 3 -10 3 C-10 2.67 -10 2.34 -10 2 C-9.04287109 1.90912109 -9.04287109 1.90912109 -8.06640625 1.81640625 C-6.82697266 1.69072266 -6.82697266 1.69072266 -5.5625 1.5625 C-4.73878906 1.48128906 -3.91507813 1.40007813 -3.06640625 1.31640625 C-1.01337975 1.21069185 -1.01337975 1.21069185 0 0 Z " fill="#DAEA2E" transform="translate(160,59)"/>
<path d="M0 0 C2.64 0.33 5.28 0.66 8 1 C7.67 1.66 7.34 2.32 7 3 C4.69 3 2.38 3 0 3 C0 2.01 0 1.02 0 0 Z " fill="#0D632B" transform="translate(151,55)"/>
<path d="M0 0 C0.99 0.33 1.98 0.66 3 1 C3 4.96 3 8.92 3 13 C2.67 13 2.34 13 2 13 C1.93941406 12.31292969 1.87882812 11.62585937 1.81640625 10.91796875 C1.73261719 10.01691406 1.64882812 9.11585937 1.5625 8.1875 C1.48128906 7.29417969 1.40007812 6.40085937 1.31640625 5.48046875 C1.06510233 2.87256441 1.06510233 2.87256441 0 0 Z " fill="#ACC425" transform="translate(106,38)"/>
<path d="M0 0 C-0.66 1.32 -1.32 2.64 -2 4 C-3.98 4 -5.96 4 -8 4 C-2.7826087 0 -2.7826087 0 0 0 Z " fill="#498158" transform="translate(67,19)"/>
</svg>
