<?xml version="1.0" encoding="UTF-8"?>
<svg version="1.1" xmlns="http://www.w3.org/2000/svg" width="91" height="55">
<path d="M0 0 C30.03 0 60.06 0 91 0 C91 18.15 91 36.3 91 55 C60.97 55 30.94 55 0 55 C0 36.85 0 18.7 0 0 Z " fill="#E0EAE0" transform="translate(0,0)"/>
<path d="M0 0 C30.03 0 60.06 0 91 0 C91 4.29 91 8.58 91 13 C67.06459211 14.75279635 67.06459211 14.75279635 56.125 7.4375 C50.69283413 3.78772853 50.69283413 3.78772853 44.37744141 3.39355469 C38.42712393 5.40029468 33.2204595 8.56574831 28 12 C25.33821779 13.3308911 23.31260604 13.11268993 20.3359375 13.09765625 C19.3257959 13.09515869 18.3156543 13.09266113 17.27490234 13.09008789 C15.98793457 13.08098389 14.7009668 13.07187988 13.375 13.0625 C7.249375 13.0315625 7.249375 13.0315625 1 13 C1 23.23 1 33.46 1 44 C4.7125 43.79375 8.425 43.5875 12.25 43.375 C25.50857464 43.01630547 34.96855985 46.96383122 46 54 C46 54.33 46 54.66 46 55 C30.82 55 15.64 55 0 55 C0 36.85 0 18.7 0 0 Z " fill="#FFFFFF" transform="translate(0,0)"/>
<path d="M0 0 C2.42050845 1.49292063 4.68826401 3.08419024 7 4.75 C10.32231067 6.77577761 12.9907811 7.04563616 16.859375 7.1640625 C17.86452148 7.19967285 18.86966797 7.2352832 19.90527344 7.27197266 C21.1740332 7.30597168 22.44279297 7.3399707 23.75 7.375 C29.81375 7.560625 29.81375 7.560625 36 7.75 C36 21.61 36 35.47 36 49.75 C29.95246526 49.98259749 23.92104557 50.18053229 17.87255859 50.29931641 C15.82611945 50.34891735 13.78002103 50.41662663 11.73486328 50.50439453 C-1.35467502 51.051132 -10.62136826 49.86753929 -22.11096191 43.37689209 C-29.19235885 39.40501123 -34.56243889 38.34190068 -42.75 38.625 C-48.31875 38.686875 -48.31875 38.686875 -54 38.75 C-54 28.52 -54 18.29 -54 7.75 C-48.43125 7.811875 -48.43125 7.811875 -42.75 7.875 C-33.16506351 7.77663834 -26.59898837 6.18515613 -18.4375 1.1875 C-11.35832376 -3.08245677 -7.41892691 -4.15217419 0 0 Z M-14.51953125 1.68359375 C-27.28477314 9.20009869 -37.17216693 9.8393243 -52 9.75 C-52 18.66 -52 27.57 -52 36.75 C-48.57625 36.729375 -45.1525 36.70875 -41.625 36.6875 C-32.044549 36.86594128 -24.9625916 38.74033476 -16.76220703 43.68725586 C-12.64615844 46.17020226 -12.64615844 46.17020226 -7.9375 46.7734375 C-5.04388349 45.76528919 -2.56806631 44.44772545 0.05078125 42.8671875 C11.0985341 36.32545393 21.30911892 36.75 34 36.75 C34 27.84 34 18.93 34 9.75 C28.864375 9.7809375 28.864375 9.7809375 23.625 9.8125 C12.34631119 9.59490472 4.19821363 6.53456418 -5.25854492 0.56030273 C-8.85062489 -1.11109968 -11.41130616 -0.2800124 -14.51953125 1.68359375 Z " fill="#005100" transform="translate(55,5.25)"/>
<path d="M0 0 C1.69638686 0.93816866 3.39109371 1.88115085 5.05078125 2.8828125 C16.0985341 9.42454607 26.30911892 9 39 9 C39 17.91 39 26.82 39 36 C35.57625 35.979375 32.1525 35.95875 28.625 35.9375 C19.044549 36.11594128 11.9625916 37.99033476 3.76220703 42.93725586 C-1.34064993 45.99495395 -1.34064993 45.99495395 -5.0625 46.0234375 C-7.95611651 45.01528919 -10.43193369 43.69772545 -13.05078125 42.1171875 C-24.0985341 35.57545393 -34.30911892 36 -47 36 C-47 27.09 -47 18.18 -47 9 C-41.864375 9.0309375 -41.864375 9.0309375 -36.625 9.0625 C-27.044549 8.88405872 -19.9625916 7.00966524 -11.76220703 2.06274414 C-7.42987732 -0.53324403 -5.0588239 -1.76251577 0 0 Z M-10.875 4.79492188 C-22.02779073 11.37192044 -32.18883293 11 -45 11 C-45 18.59 -45 26.18 -45 34 C-41.535 34 -38.07 34 -34.5 34 C-25.52082957 34.19238804 -18.71582344 35.54794263 -11.05078125 40.29296875 C-8.1636652 42.06720967 -6.36975193 43.00471622 -2.9375 42.9609375 C0.3817967 41.87510374 2.96428766 40.32966913 5.9375 38.5 C15.58406527 33.06717417 26.20662532 34.06349044 37 34 C37 26.41 37 18.82 37 11 C33.535 11 30.07 11 26.5 11 C16.58866386 10.78103108 9.5235897 8.80000914 1.08203125 3.71484375 C-3.88972478 0.94855617 -6.27918932 2.02642154 -10.875 4.79492188 Z " fill="#FFFFFF" transform="translate(50,6)"/>
<path d="M0 0 C0 3.63 0 7.26 0 11 C-14.52 11 -29.04 11 -44 11 C-31.49952164 -1.50047836 -16.6197313 -0.95272345 0 0 Z " fill="#FFFFFF" transform="translate(91,44)"/>
<path d="M0 0 C7 0 7 0 10 1 C11.66625616 3.91594828 12.00971707 5.75707326 11.875 9.125 C11 12 11 12 9.375 13.875 C7 15 7 15 0 15 C0 10.05 0 5.1 0 0 Z " fill="#015201" transform="translate(41,21)"/>
<path d="M0 0 C0.33 0.99 0.66 1.98 1 3 C-1.64 3 -4.28 3 -7 3 C-7 5.31 -7 7.62 -7 10 C-4.36 10 -1.72 10 1 10 C0.67 10.99 0.34 11.98 0 13 C-5.2952381 14.32380952 -5.2952381 14.32380952 -8.3125 12.9375 C-10.62930186 10.27746824 -10.92982809 8.50859549 -11 5 C-9.75 2.1875 -9.75 2.1875 -8 0 C-4.71023192 -1.09658936 -3.28696233 -0.79953138 0 0 Z " fill="#0B580B" transform="translate(81,22)"/>
<path d="M0 0 C0.33 0.99 0.66 1.98 1 3 C-1.64 3 -4.28 3 -7 3 C-7 5.31 -7 7.62 -7 10 C-4.36 10 -1.72 10 1 10 C0.67 10.99 0.34 11.98 0 13 C-5.2952381 14.32380952 -5.2952381 14.32380952 -8.3125 12.9375 C-10.62930186 10.27746824 -10.92982809 8.50859549 -11 5 C-9.75 2.1875 -9.75 2.1875 -8 0 C-4.71023192 -1.09658936 -3.28696233 -0.79953138 0 0 Z " fill="#0B580B" transform="translate(20,22)"/>
<path d="M0 0 C1.66611905 -0.042721 3.33382885 -0.04063832 5 0 C6 1 6 1 6.125 4.5 C6 8 6 8 5 9 C3.33382885 9.04063832 1.66611905 9.042721 0 9 C0 6.03 0 3.06 0 0 Z " fill="#F9FBF9" transform="translate(44,24)"/>
</svg>
